<svg version="1.2" xmlns="http://www.w3.org/2000/svg" viewBox="0 0 500 500" width="500" height="500">
	<title>1982003</title>
	<style>
		tspan { white-space:pre } 
		.s0 { fill: #fc6584 } 
		.s1 { fill: #fc9fb8 } 
		.s2 { fill: #ff88a4 } 
		.s3 { fill: #fcc0a2 } 
		.s4 { fill: #421e17 } 
		.s5 { fill: #ffd4bc } 
		.s6 { fill: #51281d } 
		.s7 { opacity: .3;mix-blend-mode: screen;fill: #51281d } 
		.s8 { fill: #703923 } 
		.s9 { fill: #824d3b } 
		.s10 { fill: #ffab87 } 
		.s11 { fill: #faf0f3 } 
		.s12 { fill: #26242a } 
		.s13 { opacity: .35;fill: #3a383f } 
		.s14 { fill: #121114 } 
		.s15 { fill: #ffffff } 
		.s16 { fill: #542619 } 
		.s17 { fill: #7c412c } 
		.s18 { opacity: .24;mix-blend-mode: screen;fill: #a56d3f } 
		.s19 { fill: #602e1d } 
		.s20 { fill: #ffc1c9 } 
	</style>
	<g id="OBJECTS">
		<g id="&lt;Group&gt;">
			<path id="&lt;Path&gt;" class="s0" d="m447.6 190.9c0.3-10.2-0.9-20.3-3.8-29.9-10.6-34.9-40.8-57.8-80-53.4-16.1 0.5-32.1 5-46.5 12.4-5 2.6-29.5 18.2-48.8 40.7-8.8 7.3-18.2 20.7-25.9 27.2-1.7-0.3-1.2 0.7-4.7-6.5-18.4-33.2-57.1-58.1-63.4-61.4-27.2-14-60.2-17.6-88.1-3.2-49.8 25.8-49.4 90.7-30.5 136.2 19.8 47.7 55.7 86.2 91 123 4.7 4.8 101.2 70.7 102.4 71.6 1.8 1.6 90.9-66.8 95.5-71.6 35.3-36.8 71.2-75.3 91.1-123 7.7-18.8 12.4-40.9 11.7-62.1z"/>
			<g id="&lt;Group&gt;">
				<g id="&lt;Group&gt;">
					<path id="&lt;Path&gt;" class="s1" d="m80.1 284q13.2 20.4 27.6 40.1c0.4 0.5 2.1-0.3 1.9-0.5q-14.3-19.7-27.6-40.2c-0.3-0.5-2.1 0.3-1.9 0.6z"/>
				</g>
			</g>
			<g id="&lt;Group&gt;">
				<g id="&lt;Group&gt;">
					<path id="&lt;Path&gt;" class="s1" d="m75.1 275.7q0.4 0.3 0.6 0.7c0.2 0.4 0.7 0.5 1.1 0.4 0.4-0.1 1-0.5 0.8-0.9-0.2-0.6-0.5-1-1-1.3-0.6-0.5-2.3 0.4-1.5 1.1z"/>
				</g>
			</g>
			<g id="&lt;Group&gt;">
				<g id="&lt;Group&gt;">
					<path id="&lt;Path&gt;" class="s1" d="m72 270.5q0.4 0.6 0.7 1.2c0.4 0.6 2.2 0 1.8-0.7q-0.3-0.6-0.7-1.2c-0.3-0.6-2.2 0-1.8 0.7z"/>
				</g>
			</g>
			<g id="&lt;Group&gt;">
				<g id="&lt;Group&gt;">
					<path id="&lt;Path&gt;" class="s1" d="m69.6 265.6c0.4 0.2 0.6 0.6 0.6 1 0 0.6 2 0.2 1.9-0.5 0-0.6-0.4-1.1-0.9-1.4-0.5-0.3-2.3 0.4-1.6 0.9z"/>
				</g>
			</g>
			<g id="&lt;Group&gt;">
				<g id="&lt;Group&gt;">
					<g id="&lt;Group&gt;">
						<path id="&lt;Path&gt;" class="s2" d="m404.6 126.2c11.6 4.9 18.8 15.8 23.4 27.1 5.3 13.3 8.5 28.3 6.5 42.6-0.1 0.8 2.8 0.2 2.9-0.5 2-14.6-1.2-30-6.8-43.5-4.7-11.3-12.1-21.9-23.6-26.9-0.7-0.3-3.3 0.8-2.4 1.2z"/>
					</g>
				</g>
				<g id="&lt;Group&gt;">
					<g id="&lt;Group&gt;">
						<path id="&lt;Path&gt;" class="s2" d="m434.1 200.6c0 0.4-0.1 0.8-0.2 1.2-0.2 0.7 0.9 0.9 1.3 0.9 0.7-0.1 1.4-0.5 1.6-1.1 0.2-0.6 0.2-1.2 0.2-1.8-0.1-0.7-1.3-0.6-1.7-0.5-0.6 0.2-1.3 0.6-1.2 1.3z"/>
					</g>
				</g>
				<g id="&lt;Group&gt;">
					<g id="&lt;Group&gt;">
						<path id="&lt;Path&gt;" class="s2" d="m433 205.4c0.1 0.4 0.2 0.9 0.1 1.4-0.2 1.5 2.7 1.1 2.9-0.2q0.2-1-0.1-2c-0.4-1.4-3.3-0.6-2.9 0.8z"/>
					</g>
				</g>
				<g id="&lt;Group&gt;">
					<g id="&lt;Group&gt;">
						<path id="&lt;Path&gt;" class="s2" d="m432.3 210q0 0.7-0.3 1.4c-0.2 0.5 1 0.3 1.2 0.3 0.5-0.1 1.4-0.3 1.7-0.8q0.3-0.8 0.3-1.7c0-0.4-2.8-0.1-2.9 0.8z"/>
					</g>
				</g>
			</g>
			<g id="&lt;Group&gt;">
				<g id="&lt;Group&gt;">
					<path id="&lt;Path&gt;" class="s0" d="m449.9 222.9c-4.8 20.6-12.1 40.5-21.7 59.3-0.4 0.7 2.4 0.5 2.8-0.4 9.7-18.8 17-38.7 21.8-59.3 0.2-1-2.7-0.5-2.9 0.4z"/>
				</g>
			</g>
		</g>
		<g id="&lt;Group&gt;">
			<path id="&lt;Path&gt;" class="s3" d="m206.5 302.6c0 0 37.8 18 94-24l-2.7 17.7c0 0-33.7 20.7-60.7 24.3 0 0-25-3.3-30.6-18z"/>
			<g id="&lt;Group&gt;">
				<g id="&lt;Group&gt;">
					<path id="&lt;Path&gt;" class="s4" d="m232.6 141.4c0 0 3.5 24.7 16.3 36.5l3.2-32.5z"/>
					<path id="&lt;Path&gt;" class="s5" d="m359.9 385.6c-17.3 5.5-11.2-106.4-11.2-106.4-52 96.1-29.5-16.3-29.5-16.3-2.4-5.2-4.3-13.6-4.3-13.6-36.1 9.6-53.5 4-60.7-23.8q-0.9-3.1-1.5-6.6-0.6-3.3-1.2-6.5-0.1-0.6-0.2-1.2c-0.7-4-1.3-7.9-1.9-11.7q-0.3-1.9-0.5-3.8c-2.9-20.1-3.8-34.9-3-36.1 5.5-7.9 13.2-11.8 21.5-13.2 22.1-3.8 48.2 9.9 48.2 9.9 14 33.7 22.8 25.1 22.8 25.1 10.9-13.9 25.4-5.6 26.7-0.1 6.6 27.8 0.7 27.7 0.7 27.7-14.2 21.1-28.7 30.6-28.7 30.6l5.5 19.7c49 15.7 17.3 126.3 17.3 126.3z"/>
					<g id="&lt;Group&gt;">
						<path id="&lt;Path&gt;" class="s6" d="m381.1 175.6c-2.3 24.4-17.5 39.8-25.7 47-0.6-6.6-1.3-11.5-3.8-17.5 3.5-15.5 5.8-29.5 5.8-29.5-17.7-3.7-16.9 18-16.9 18-15.7 7.3-23.8-7.8-25.1-18.2-0.6-4.9-1.8-7.3-6.8-6.2-71.5 16.1-80.4-38.9-80.4-38.9q0.6-0.6 1.2-1.1c41.6-36.5 84.7-32.4 111-24.4 8.6 2.6 15.4 5.7 19.7 7.9 3.6 1.8 15.1 10.4 16.5 14 6.1 16 6.3 30.5 4.5 48.9z"/>
						<path id="&lt;Path&gt;" class="s7" d="m344.3 131.6c-0.9 1.5-2.9 1.7-4.7 2-1.7 0.3-3.8 1.2-4 2.9-0.1 1.6 1.3 2.9 1.8 4.4 0.5 1.7-0.3 3.5-1.5 4.7-1.3 1.2-2.9 1.9-4.5 2.5-14.2 5.2-29.6 5.4-44.6 4.2-19.4-1.5-39.6-5.7-54.2-18.6-1.8-1.6-2.8-3.1-3.2-4.5 41.6-36.5 84.7-32.4 111-24.4 2.1 2.8 3 6.8 1.2 9.8-0.9 1.7-2.6 3.1-2.8 5-0.2 2.4 1.9 4.2 3.5 5.8 1.7 1.6 3.3 4.2 2 6.2z"/>
						<path id="&lt;Path&gt;" class="s5" d="m366.1 190.4c0 8.3-5.2 15.1-11.5 15.1-6.4 0-11.6-6.8-11.6-15.1 0-8.4 5.2-15.2 11.6-15.2 6.3 0 11.5 6.8 11.5 15.2z"/>
						<g id="&lt;Group&gt;">
							<path id="&lt;Path&gt;" class="s8" d="m233.9 134.5c5.4 2.4 10.8 4.4 16.3 6.1q8.2 2.5 16.7 4 8.5 1.5 17.1 2.2c5.7 0.4 11.5 0.6 17.4 0.4-5.6 1.8-11.6 2.6-17.5 2.7-5.9 0.2-11.9-0.3-17.7-1.4-5.9-1-11.6-2.7-17.1-5-5.5-2.3-10.7-5.2-15.2-9z"/>
						</g>
						<g id="&lt;Group&gt;">
							<path id="&lt;Path&gt;" class="s8" d="m309.8 158.1c-6.4 3.7-13.9 5.8-21.5 6.4-7.6 0.6-15.3-0.3-22.6-2.7-7.4-2.4-14.2-6.3-19.9-11.2-5.8-5-10.6-11.1-13.6-17.9 5.1 5.4 10.5 10.2 16.4 14.1 5.9 4 12.3 7.1 18.9 9.3 6.7 2.2 13.6 3.4 20.7 3.7 7.1 0.3 14.3-0.3 21.6-1.7z"/>
						</g>
						<g id="&lt;Group&gt;">
							<g id="&lt;Group&gt;" style="opacity: .29">
								<path id="&lt;Path&gt;" class="s8" d="m335.7 182.9c-0.6-3.7-0.2-7.5 0.7-11.1 0.9-3.6 2.5-7.4 5.6-10.2 3.1-2.7 7.2-4 11.1-3.9 3.9 0 7.9 1.6 10.3 4.5-3.4-1.5-6.8-1.9-10.1-1.4-3.3 0.5-6.3 1.8-8.6 3.8-2.3 2-4 5-5.3 8.2-1.5 3.2-2.6 6.5-3.7 10.1z"/>
							</g>
							<g id="&lt;Group&gt;" style="opacity: .29">
								<path id="&lt;Path&gt;" class="s8" d="m335.4 181.1q-1.4-3.3-2-6.9c-0.4-2.4-0.5-4.8-0.1-7.3 0.3-2.4 1.1-4.8 2.4-7 1.3-2.1 3.1-3.9 5.3-4.9-1.7 1.7-3 3.6-3.9 5.7-0.9 2.1-1.6 4.2-1.9 6.5-0.3 2.2-0.3 4.5-0.2 6.8 0.1 2.4 0.3 4.7 0.4 7.1z"/>
							</g>
						</g>
					</g>
					<g id="&lt;Group&gt;">
						<g id="&lt;Group&gt;">
							<path id="&lt;Path&gt;" class="s9" d="m267.6 184c1.1-1.9 2.8-3.4 4.8-4.5 2-1.1 4.3-1.8 6.6-1.9 2.3-0.1 4.6 0.3 6.7 1.2 1 0.4 2 1.1 2.9 1.8 0.8 0.8 1.6 1.8 1.8 2.9-0.8-0.8-1.7-1.3-2.6-1.7-0.9-0.4-1.9-0.6-2.8-0.8-2-0.4-4-0.5-5.9-0.4q-2.9 0.2-5.7 1.1c-2 0.6-3.8 1.4-5.8 2.3z"/>
						</g>
						<g id="&lt;Group&gt;">
							<path id="&lt;Path&gt;" class="s9" d="m266.5 191.8c1 2.8 2.4 5.1 4.2 6.8 1.9 1.7 4.1 2.6 6.3 2.7 2.2 0 4.3-0.9 6.2-2.6 0.9-0.8 1.7-1.8 2.5-2.9 0.8-1.2 1.4-2.4 2.2-3.7 0.1 2.9-0.5 6-2.3 8.7-1 1.3-2.2 2.5-3.7 3.3-1.5 0.8-3.3 1.2-5 1.2-3.5-0.1-6.7-2-8.5-4.7-1.9-2.6-2.5-5.9-1.9-8.8z"/>
						</g>
						<path id="&lt;Path&gt;" class="s10" d="m277.8 218.1c0.5 4.2 7.3 6.7 15.1 5.7 7.7-1.1 13.5-5.4 13-9.5-0.6-4.2-7.4-6.7-15.1-5.6-7.8 1-13.6 5.3-13 9.4z"/>
						<path id="&lt;Path&gt;" class="s9" d="m285.4 200.5c1 0.1 1.7-0.1 2.4-0.2q1-0.3 2-0.6c1.4-0.5 2.7-1 3.9-1.8-1.3 0.5-2.7 0.7-4.1 0.8q-1 0.1-2 0.1c-0.6 0-1.3-0.1-1.7-0.3z"/>
						<path id="&lt;Path&gt;" class="s9" d="m286.7 197.3c1.1 0.1 1.6-0.1 2.1-0.3q0.8-0.3 1.4-0.7c0.9-0.5 1.6-1.1 2.4-1.6-1 0.1-2 0.2-3 0.3q-0.7 0-1.4 0c-0.5-0.1-1-0.2-0.9-0.3z"/>
						<g id="&lt;Group&gt;">
							<g id="&lt;Group&gt;">
								<path id="&lt;Path&gt;" class="s10" d="m347.8 193.4c-0.3-1.1-0.1-2.1 0.2-3.1 0.4-1 1-1.9 1.9-2.6 0.8-0.7 1.9-1.2 2.9-1.3 0.5-0.1 1.1 0 1.6 0q0.8 0.2 1.5 0.5c-0.5 0.2-1 0.3-1.4 0.5-0.4 0.2-0.9 0.3-1.3 0.5-0.8 0.3-1.4 0.8-2.1 1.3-1.3 1-2.2 2.4-3.3 4.2z"/>
							</g>
							<g id="&lt;Group&gt;">
								<path id="&lt;Path&gt;" class="s10" d="m353.9 192.7c-1.3 0-2.2-0.1-3 0-0.4 0-0.8 0-1.3 0.1-0.5 0.1-0.9 0.3-1.6 0.4 0-0.7 0.3-1.3 0.9-1.8 0.5-0.4 1.2-0.7 1.9-0.7 0.7-0.1 1.4 0.1 1.9 0.5 0.6 0.3 1 0.8 1.2 1.5z"/>
							</g>
						</g>
					</g>
					<path id="&lt;Path&gt;" class="s5" d="m254.5 211c-1.1-0.4-5.6-1.8-6.7-1.8-1.2 0-2.4 0.6-2.8 1.7-0.5 1.3 0.5 2.8 1.6 3.6 1.1 0.9 2.5 1.4 3.9 1.5-1.1 0.8-2.1 1.6-2.8 2.8-0.7 1.1-0.8 2.7 0.1 3.7 1 1.1 2.8 1.1 4.2 0.7 1.5-0.5 2.9-1.3 4.4-1.4z"/>
					<path id="&lt;Path&gt;" class="s5" d="m248.8 193.5c-0.1 2.5-1.1 5-2.6 7-0.9 1.2-2.1 2.3-1.9 3.8 0.1 1.2 1 2.1 2 2.8 0.9 0.7 4.7 1.3 5.1 2.4z"/>
				</g>
				<g id="&lt;Group&gt;">
					<path id="&lt;Path&gt;" class="s11" d="m312.5 273.6l-18.4 46 1.4 63.4 13-7.4 20.6-45.3 6.7-46-13.2-16.3z"/>
					<path id="&lt;Path&gt;" class="s12" d="m319.5 263.9c0 0-28.9 44.7-22.9 105.7l-23.5 2c0 0-0.6-25.6 12.4-49.6 0 0-19.4 21.6-46.4 50.6l-16-18c0 0 50.7-77.3 96.4-90.7z"/>
					<path id="&lt;Path&gt;" class="s13" d="m318 266.4c0 0-19.7 32.7-20.9 71.9l-8.5-45.9 11.4-10.5 4.5 0.7 0.1-4.4z"/>
					<path id="&lt;Path&gt;" class="s12" d="m341.8 257.3c0 0-40.2 107.8-115 117l14 14.3 56.3-10 64.7 4.7c0 0 30.3-109.4-20-126z"/>
					<path id="&lt;Path&gt;" class="s14" d="m323.6 338c0 0-15 18-33.4 27.6l29 3c0 0 3.4-24 4.4-30.6z"/>
					<path id="&lt;Path&gt;" class="s15" d="m322.6 267.9l10.1 17.1 18.7-24-9.3-3.9z"/>
					<path id="&lt;Path&gt;" class="s15" d="m322.6 268l-3.4-5.1-7.7 5.2-3.9 11z"/>
					<path id="&lt;Path&gt;" class="s12" d="m319.8 269c-1.6 1.6-2 3.1-2 5.4 0 1.1 0.3 2.4 1.2 2.9 0.9 0.5 1.9 0.3 2.7-0.3 0.7-0.6 1.1-1.4 1.4-2.3 0.4-1.3 0.3-2.6 0-3.9-0.6-2.8-3.3-1.8-3.3-1.8z"/>
					<path id="&lt;Path&gt;" class="s12" d="m323.2 271.8l7.3-1.4c0.6-0.1 1 0.4 0.8 0.9l-3.2 8.5c-0.2 0.5-0.8 0.6-1.1 0.3l-5.1-4.7c-0.2-0.2-0.3-0.5-0.2-0.8l1-2.4c0.1-0.2 0.3-0.4 0.5-0.4z"/>
					<path id="&lt;Path&gt;" class="s12" d="m319.3 269.7l-4.6-4c-0.8-0.6-1.9-0.2-2.1 0.8l-1.2 7.1c-0.1 0.9 0.7 1.6 1.6 1.4l5.5-1.3c0.5-0.1 0.9-0.5 1-1l0.3-1.9c0-0.4-0.1-0.9-0.5-1.1z"/>
				</g>
			</g>
			<g id="&lt;Group&gt;">
				<path id="&lt;Path&gt;" class="s11" d="m248.4 336.1c0 0 6 16-7 26.3l7.7 30.5-53 8.7-23.3-42.3 32.3-30.2z"/>
				<path id="&lt;Path&gt;" class="s16" d="m221.3 189.5c0 0 1.6-22.8-9.9-25.1-1.2-0.3-3.7-1.8-5.3-1.3 0 0-24.8-3.8-24.1 29.2 0.4 16.3 19.1 6.1 19.1 6.1l17.3-9.4"/>
				<g id="&lt;Group&gt;">
					<path id="&lt;Path&gt;" class="s5" d="m354.1 280.3c0 0-0.2 0.5-0.8 1.5-6.7 11.8-55.9 90.6-148.5 49.8 0 0-15 21.4-32 27.7 0 0-15.2-37.3 15.1-55.7l1.2-12.3c0 0-18.3-0.3-29.3-13.7 0 0-24.1 9.3-27-14.3-0.7-5.6 3-19.5 20.1-15.2 0 0 49.6 4.9 41.9-37.5 0 0-15.1-39.5 18.9-28.9 1.9 0.6 15.5 15.2 29.9 43.4 15.6 30.3 6.5 46.5-30.5 62.2 0 0-4 9.8-3.1 15.5q0.1 0.3 0.1 0.5c0 0 0.5 0.2 1.5 0.6 9.1 3.7 60.6 22.7 103.5-2.8 9.9-5.9 20.2-18.9 28.6-30.6q0.7-1.1 1.4-2l3.9 5z"/>
					<g id="&lt;Group&gt;">
						<g id="&lt;Group&gt;">
							<path id="&lt;Path&gt;" class="s9" d="m208.4 208c-2 0.5-3.9 0.6-5.5 1.2-1.6 0.5-3.1 1.4-4.5 2.5-1.4 1.1-2.7 2.3-3.9 3.7-1.1 1.4-2.1 2.9-2.4 4.9-0.4-0.9-0.5-2-0.3-3.1 0.1-1 0.4-2 0.9-3 0.9-1.9 2.3-3.5 3.9-4.8 1.6-1.4 3.6-2.5 5.8-2.7 2.2-0.2 4.2 0.3 6 1.3z"/>
						</g>
						<g id="&lt;Group&gt;">
							<path id="&lt;Path&gt;" class="s9" d="m215.8 215.1c2.1 1.8 3.6 4.5 3.7 7.6 0.2 3-1.1 6.3-3.6 8.3-1.3 1.1-2.8 1.8-4.4 2-1.6 0.3-3.2 0.1-4.6-0.3-2.9-0.9-5.2-2.9-6.7-5.2 2.6 1 5 1.9 7.3 2.1 2.3 0.2 4.3-0.4 5.9-1.6 1.5-1.3 2.6-3.3 3-5.5 0.4-2.2 0.1-4.7-0.6-7.4z"/>
						</g>
						<path id="&lt;Path&gt;" class="s9" d="m205.9 231.3c-0.6 0.7-1.2 1.1-1.9 1.5q-0.9 0.5-1.9 0.9c-1.2 0.6-2.6 1.2-3.9 1.4 1.2-0.6 2.4-1.4 3.4-2.2q0.8-0.6 1.5-1.3c0.5-0.5 0.9-1 1.1-1.4z"/>
						<path id="&lt;Path&gt;" class="s9" d="m203.2 229.4c-0.8 0.8-1.4 1-2 1.2q-0.9 0.3-1.7 0.4c-1.1 0.2-2.2 0.3-3.3 0.5 0.9-0.6 1.9-1.2 2.7-1.9q0.7-0.4 1.2-1c0.3-0.3 0.7-0.7 0.5-0.8z"/>
						<path id="&lt;Path&gt;" class="s10" d="m223.4 239.9c2.1 3.7-1.7 9.8-8.5 13.7-6.8 3.9-14 4.1-16.1 0.5-2.1-3.7 1.7-9.8 8.5-13.7 6.8-3.9 14-4.1 16.1-0.5z"/>
					</g>
					<path id="&lt;Path&gt;" class="s5" d="m238.1 222.9c0.5-1 3.2-4.9 4.1-5.6 0.9-0.6 2.2-0.9 3.2-0.4 1.2 0.8 1.4 2.5 1 3.9-0.4 1.4-1.1 2.6-2.2 3.6 1.4-0.1 2.7-0.1 3.9 0.4 1.3 0.5 2.3 1.7 2.3 3-0.1 1.5-1.5 2.6-3 3.1-1.4 0.6-3 0.8-4.2 1.7"/>
					<g id="&lt;Group&gt;">
						<g id="&lt;Group&gt;">
							<path id="&lt;Path&gt;" class="s10" d="m152 262.4c-2-0.6-3.6-1.1-5.3-1-0.8 0-1.6 0.1-2.4 0.4-0.5 0.1-0.9 0.2-1.3 0.4-0.5 0.1-0.9 0.3-1.4 0.5q0.3-0.7 0.8-1.3c0.4-0.4 0.7-0.8 1.2-1 0.9-0.7 2-1 3.1-1 1.1 0 2.2 0.3 3.1 0.8 0.9 0.5 1.7 1.2 2.2 2.2z"/>
						</g>
						<g id="&lt;Group&gt;">
							<path id="&lt;Path&gt;" class="s10" d="m146.8 265.9c-0.2-0.7-0.2-1.3 0-2 0.2-0.6 0.6-1.2 1.1-1.6 0.6-0.4 1.3-0.7 2-0.7 0.7 0 1.3 0.3 1.8 0.8-0.6 0.3-1.1 0.5-1.5 0.8-0.4 0.2-0.7 0.4-1 0.7-0.7 0.5-1.3 1.1-2.4 2z"/>
						</g>
					</g>
					<path id="&lt;Path&gt;" class="s5" d="m231 206.9c1.7 1.9 4 3.3 6.5 3.9 1.4 0.4 3 0.6 3.8 1.8 0.6 1 0.4 2.3 0.1 3.5-0.3 1.1-2.9 3.9-2.6 5"/>
					<g id="&lt;Group&gt;" style="opacity: .33;mix-blend-mode: screen">
						<path id="&lt;Path&gt;" class="s5" d="m359.2 259.5c-3.9 0.4-7.5 3.1-8.8 6.8-0.8 2.3-0.8 4.8-1.4 7.2q-0.1 0.2-0.2 0.5c-0.6 1.9-1.7 3.7-2.9 5.3q-0.5 0.7-1 1.4c-14.9 19-35.5 33.6-58.4 41.3-23 7.7-48.2 8.5-71.5 2.3-5.3-1.4-10.6-3.2-14.8-6.6-2.9-2.3-5.3-6-4.2-9.5 0.9-2.7 3.6-4.3 6.3-4.8 2.7-0.5 5.5 0 8.2 0.6l1.1-0.1c9.1 3.7 60.6 22.7 103.5-2.8 9.9-5.9 20.2-18.9 28.6-30.6 0-2 0.2-4 1.2-5.8 2.8-4.7 9.3-7.2 14.3-5.2z"/>
					</g>
				</g>
				<g id="&lt;Group&gt;">
					<path id="&lt;Path&gt;" class="s8" d="m210.5 164.3c-8.6-2.4-13.3 0.7-16.4 9.3-3 8.4 1.6 29 2.5 37.9 0.8 8.9 0.7 18.6-4.7 25.7-4.5 5.9-11.8 8.8-19 10.1-7.2 1.2-14.6 0.9-21.9 1.7-3.4 0.3-6.8 0.9-9.7 2.7-4.9 3-7.4 9.2-6.2 14.9 1.1 5.6 5.7 10.2 11.2 11.9 6.6 2 13.7-1.6 20.6-2 6.1-0.3 12.6 2.4 17.3 6.3 4.8 3.9 8 11.9 5.7 17.6-2.3 5.4-8.1 8.4-12.1 12.7-4.8 5.1-7.7 11.1-8.3 18-0.5 7 0.4 14 1.3 20.9 0.8 7 1.2 14.4-3.2 19.9-4.4 5.4-13.3 6-18.7 1.8-3.7-2.8-2.8-5.7-4.3-9.7-1.4-3.7-4.1-6.8-7.1-9.4-4.6-4-10.2-7.2-13.9-12.1-8.5-10.9-4-24.1 3.1-34.3 3-4.2 0.7-9.7-2.6-13.2-11.4-12.4-25.7-25.3-32.7-41-6.8-15.4-3.2-35.4 6.1-48.8 3.5-5 7.8-9.3 11.9-13.8 4.3-4.8 7.3-9.9 10.9-15.1 6.9-10.1 18.9-18.3 30.4-22.3q0.6-0.2 1.3-0.4 0.1 0 0.2-0.1 0.8-0.2 1.6-0.4 0.8-0.3 1.6-0.5 0.7-0.1 1.5-0.3 1.4-0.3 2.9-0.6c11.5-1.9 22.3 0.1 31 2.9q0.3 0.1 0.7 0.3c11.5 3.9 19 9.4 19 9.4z"/>
					<g id="&lt;Group&gt;">
						<path id="&lt;Path&gt;" class="s17" d="m187.7 190.1c0.3 6.3 1.8 12.1 2.7 18.3 1 6.2 1.1 12.9-1.2 19.2-0.6 1.5-1.3 3.1-2.3 4.5-0.9 1.4-2 2.7-3.3 3.8-1.4 1.1-2.8 2.1-4.3 2.8q-2.3 1-4.6 1.6c-3.1 0.9-6.1 1.4-9 2.3-1.4 0.4-2.8 0.9-4.2 1.5-1.3 0.7-2.6 1.6-3.7 2.6 0.8-1.3 1.9-2.5 3.1-3.5 1.3-1 2.7-1.8 4.1-2.5 2.9-1.3 5.9-2.2 8.7-3.3 1.4-0.6 2.7-1.2 4-1.9q1.8-1 3.3-2.4c2-1.9 3.5-4.3 4.5-6.9 0.5-1.4 0.9-2.7 1.1-4.2 0.4-1.4 0.5-2.8 0.7-4.3 0.3-2.9 0.1-5.9 0-9-0.3-6-0.9-12.4 0.4-18.6z"/>
					</g>
					<path id="&lt;Path&gt;" class="s18" d="m191.2 154.8c-4.2 0.1-6.7 0.9-8.4 1.3-2.8 0.7-5.5 1.8-8 3.4-4.8 3-8.7 7.7-10.8 13-3.2 8.1-2.4 17.1-1.9 25.8 0.4 7.4 0.9 16.9-3.2 23.5-3.5 5.5-11.9 6.7-16.7 10.9-2.8 2.5-4.6 6-6.5 9.3-2 3.2-4.3 6.5-7.7 8.2-3.5 1.6-8.3 0.9-10.1-2.4-3-5.1 1.9-13.5-3.2-16.5-2.3-1.3-5.2-0.4-7.8-0.7-3-0.4-4.9-2-6.2-4.1-3.3-21.1 6.8-30.9 6.8-30.9q0.4-0.8 0.8-1.6 0.3-0.4 0.6-0.9 2.3-4.1 4.9-8.1 0.5-0.7 1-1.4 0.1-0.1 0.2-0.3 2.3-3.3 4.9-6.5c8.2-10.1 18.5-18.5 30.8-22.8q0.6-0.2 1.3-0.4 0.1 0 0.2-0.1 0.8-0.2 1.6-0.4 0.8-0.3 1.6-0.5 0.7-0.1 1.5-0.3 1.4-0.3 2.9-0.6c11.5-1.9 22.3 0.1 31 2.9q0.2 0.1 0.4 0.2z"/>
					<g id="&lt;Group&gt;">
						<path id="&lt;Path&gt;" class="s17" d="m157.3 246.6c0.3-2.2 0.8-4.5 2-6.5q0.9-1.5 2.1-2.8c0.8-0.9 1.7-1.7 2.6-2.4 0.9-0.7 1.9-1.3 2.8-2 0.9-0.6 1.8-1.3 2.7-1.9 1.8-1.3 3.4-2.7 4.6-4.2q0.9-1.2 1.4-2.5c0.4-0.9 0.7-1.9 0.9-2.9 0.4-1.9 0.6-4 0.5-6.1-0.2-4.1-1.1-8.4-1.9-12.9-0.4-2.3-0.7-4.6-0.9-6.9q-0.3-3.4-0.3-6.9c0.1-4.7 0.7-9.5 2.5-13.9 0.9-2.3 2.1-4.4 3.6-6.3 1.5-1.9 3.4-3.5 5.4-4.8 2.1-1.2 4.3-2.1 6.7-2.4q1.7-0.3 3.5-0.1c1.1 0.1 2.2 0.4 3.3 0.8-4.5-0.6-8.8 1.1-12 3.8-3.4 2.7-5.5 6.3-6.7 10.3-1.2 4-1.6 8.3-1.5 12.6 0.1 2.1 0.3 4.3 0.5 6.5 0.2 2.2 0.5 4.3 0.8 6.5 0.7 4.3 1.7 8.9 1.6 13.7 0 2.4-0.3 4.8-1 7.2-0.4 1.2-0.8 2.3-1.4 3.5-0.6 1.1-1.4 2.2-2.2 3.1-1.8 1.9-3.8 3.2-5.8 4.3-2 1.2-4.1 2.1-6 3.2-1.8 1.1-3.5 2.4-4.9 4.1-1.3 1.7-2.2 3.8-2.9 5.9z"/>
					</g>
					<g id="&lt;Group&gt;">
						<path id="&lt;Path&gt;" class="s17" d="m158.4 242.1c0-2.1 0.8-4.2 1.8-6 1-1.8 2.2-3.5 3.3-5.2q0.7-1.3 1.3-2.6c0.3-0.9 0.7-1.8 0.9-2.7 0.6-1.8 0.9-3.8 1-5.7 0.2-3.9-0.3-7.9-0.7-11.9-0.5-4.1-0.9-8.3-0.3-12.4 0.7 4.1 1.7 8 2.6 12 0.9 4 1.7 8.2 1.4 12.5-0.2 2.1-0.5 4.3-1.3 6.4-0.3 1-0.8 2-1.3 2.9-0.4 1-1.1 1.9-1.7 2.8-2.6 3.4-5.7 5.9-7 9.9z"/>
					</g>
					<g id="&lt;Group&gt;">
						<path id="&lt;Path&gt;" class="s17" d="m122.6 279.4c2.7 3.2 5.5 6.3 8.1 9.5 2.7 3.2 5.3 6.6 7.2 10.6 1 1.9 1.8 4 2.4 6.3 0.2 1.1 0.4 2.2 0.5 3.4 0.1 1.1 0.1 2.2 0.1 3.3 0 4.3-0.6 8.4-0.5 12.3 0 2 0.2 3.9 0.6 5.7 0.4 1.7 1.2 3.5 2.1 5.2 1.8 3.5 4.5 6.9 6.1 11 1.6 4.2 2 8.4 3.1 12.2 0.6 1.9 1.5 3.7 2.6 5.3 1.2 1.6 2.8 3 4.7 3.8-2-0.4-4-1.5-5.5-3.1-1.5-1.5-2.7-3.3-3.6-5.3-1.8-3.9-2.6-8.1-4.3-11.5-1.7-3.5-4.4-6.6-6.7-10.3-1.2-1.9-2.2-3.9-2.9-6.2-0.6-2.2-0.9-4.4-1-6.6-0.1-4.4 0.3-8.6 0.3-12.5 0-1 0-2-0.1-2.9q-0.1-1.4-0.4-2.7c-0.4-1.9-1-3.7-1.7-5.5-1.5-3.6-3.6-7.1-5.6-10.7-2-3.6-4.1-7.3-5.5-11.3z"/>
					</g>
					<g id="&lt;Group&gt;">
						<path id="&lt;Path&gt;" class="s17" d="m148.4 294.8c2.5 2.3 4.8 4.7 6.8 7.5 2 2.8 3.6 6 4.2 9.7 0.3 1.8 0.3 3.7 0 5.5-0.3 1.9-0.9 3.6-1.6 5.2-1.3 3.3-2.9 6.1-3.8 8.9-0.5 1.4-0.8 2.8-0.9 4.2-0.1 1.3 0.1 2.5 0.6 3.8 0.5 1.2 1.3 2.5 2.2 3.9 0.8 1.4 1.8 3 2.5 4.6 2.9 6.5 3.1 14 0.5 20.2 0.5-6.7-0.9-13.1-4-18.4-0.8-1.4-1.7-2.5-2.7-3.9-1-1.3-2-2.8-2.9-4.6-0.8-1.7-1.2-3.9-1.1-5.8 0-2 0.5-3.8 1-5.6 1.2-3.4 3-6.3 4.3-9.2 0.6-1.4 1.2-2.8 1.5-4.1 0.4-1.4 0.5-2.8 0.5-4.3-0.2-3-1-6-2.4-8.9-1.3-2.9-3.1-5.7-4.7-8.7z"/>
					</g>
				</g>
				<path id="&lt;Path&gt;" class="s19" d="m187.5 333.5c-0.9-5.6-2-10.4-6.1-14.7-2.1-2.2-4.8-4-6.3-6.6-1.7-2.8-1.8-6.3-0.6-9.3 1.1-2.7 3.8-4.8 3.4-8-0.8-6.8-7.8-12.6-13.4-18.1-1.6-1.6-3.1-3.1-4.3-4.6-5.3-6.8-7.8-15.4-5.1-23.5 6-0.4 11.9-0.4 17.8-1.4q0.1 0 0.2-0.1c-2.5 3.4-3.6 6.4-3.3 16.6 0.2 6.1 3.2 10.5 6.4 14.4 3.8 4.3 10.4 7.6 11.1 11.9 0.9 5.2-4.8 10.2-5.1 15.5q0 1.8 0.1 3.4c0.9 11.3 8.6 15.4 5.2 24.5z"/>
				<g id="&lt;Group&gt;">
					<path id="&lt;Path&gt;" class="s11" d="m133.2 162.7c-3.2 0.5-5.8 3.3-6.2 6.5-0.3 3.2 1.8 6.5 4.8 7.6-4.3 2.1-7.4 13.6 1.5 16.8-5.8 4-0.6 15 2.2 13.7-4.8 5.3-2.6 13 3.6 16.3-3.3 5.8 0 15.5 7.4 17.5-0.5 2.2 0.1 4.7 1.8 6.1 1.7 1.5 4.5 1.5 6-0.2 1.4-1.7-0.4-6.7-2.6-7.1 3.6-4 3.2-13.3-0.9-17.2 2.6-7.3 0.8-14.8-4.7-17.7 3.8-2.1 4.4-12-1-14.5 4-3.3 3.4-11.5-1.4-14.6 4.4-4.4 3.2-14.4-0.2-18.7-7.1-0.2-14.2 5.3-16.4 12.1"/>
					<path id="&lt;Path&gt;" class="s15" d="m135 177.1c-1.7 2.7-2.9 4.2-3.1 7.3-0.3 3.2 1.4 7.6 4.5 8.3-2.3 2.1-2.2 4.6-2 7.5 0.2 2.9 2.1 6.7 5 7.1-7.4 5.7 0.9 15.3 1.8 14.8-0.8 2.9-1.4 6-0.8 8.9 0.5 3 2.4 5.9 5.2 6.9 4.4 3.4 4.7-1.3 5.2-1.3 1.2-2.9 3-9.7-2.3-14.7 0-1.3 0.5-3.3 0.5-4.6 0.2-2.4-0.1-4.7-0.7-7-0.6-2.1-2.5-2.8-4.3-3.8 2.9-2.5 3.2-13.2-2-15.4 5-3.6 2.3-12.3-0.9-14.9 3.9-5.2 1.1-11.9 0.3-13.6-0.9-1.6-2.6-2.9-4.4-3.1-3.7-0.3-6.1 3.2-6.3 6.3-0.2 3.6 1.2 9.3 4.3 11.3z"/>
				</g>
				<path id="&lt;Path&gt;" class="s5" d="m364.6 271c-0.7 3.8-2.9 7.6-6.7 9.6-1.4 0.7-3 1.1-4.6 1.2-2.8 0.1-5.7-0.7-7.4-2.5q-0.1-0.2-0.3-0.4c-1.4-1.8-1.6-4-1.7-6.2q-0.1-1.1-0.2-2.2c0-2 0.2-4 1.2-5.8 2.8-4.7 9.3-7.2 14.3-5.2 1.7 0.7 3.2 1.9 4.3 3.8 1.4 2.4 1.5 5.1 1.1 7.7z"/>
			</g>
		</g>
		<g id="&lt;Group&gt;">
			<g id="&lt;Group&gt;">
				<path id="&lt;Path&gt;" class="s1" d="m102 363.6c0 2.4-1.7 4.3-3.9 4.3-2.1 0-3.8-1.9-3.8-4.3 0-2.3 1.7-4.2 3.8-4.2 2.2 0 3.9 1.9 3.9 4.2z"/>
				<path id="&lt;Path&gt;" class="s1" d="m351 89.9c0 2.3-1.7 4.2-3.9 4.2-2.1 0-3.8-1.9-3.8-4.2 0-2.4 1.7-4.3 3.8-4.3 2.2 0 3.9 1.9 3.9 4.3z"/>
				<path id="&lt;Path&gt;" class="s1" d="m395 91.6c0 2.4-1.7 4.3-3.9 4.3-2.1 0-3.8-1.9-3.8-4.3 0-2.3 1.7-4.2 3.8-4.2 2.2 0 3.9 1.9 3.9 4.2z"/>
				<path id="&lt;Path&gt;" class="s1" d="m45 137.9c0 2.3-1.7 4.2-3.9 4.2-2.1 0-3.8-1.9-3.8-4.2 0-2.4 1.7-4.3 3.8-4.3 2.2 0 3.9 1.9 3.9 4.3z"/>
				<path id="&lt;Path&gt;" class="s1" d="m211.3 119.6c0 2.4-1.8 4.3-3.9 4.3-2.1 0-3.9-1.9-3.9-4.3 0-2.3 1.8-4.2 3.9-4.2 2.1 0 3.9 1.9 3.9 4.2z"/>
				<path id="&lt;Path&gt;" class="s1" d="m427 304.6c0 2.4-1.7 4.3-3.9 4.3-2.1 0-3.8-1.9-3.8-4.3 0-2.3 1.7-4.2 3.8-4.2 2.2 0 3.9 1.9 3.9 4.2z"/>
				<path id="&lt;Path&gt;" class="s1" d="m390 354.4c0 2.3-1.7 4.2-3.9 4.2-2.1 0-3.8-1.9-3.8-4.2 0-2.4 1.7-4.3 3.8-4.3 2.2 0 3.9 1.9 3.9 4.3z"/>
				<path id="&lt;Path&gt;" class="s1" d="m75.2 338.1c0 1.9-1.3 3.4-3.1 3.4-1.7 0-3.1-1.5-3.1-3.4 0-1.9 1.4-3.4 3.1-3.4 1.8 0 3.1 1.5 3.1 3.4z"/>
				<path id="&lt;Path&gt;" class="s1" d="m147.3 131.6c0 1.9-1.3 3.4-3.1 3.4-1.7 0-3.1-1.5-3.1-3.4 0-1.9 1.4-3.4 3.1-3.4 1.8 0 3.1 1.5 3.1 3.4z"/>
				<path id="&lt;Path&gt;" class="s1" d="m48.3 163.6c0 1.9-1.3 3.4-3.1 3.4-1.7 0-3.1-1.5-3.1-3.4 0-1.9 1.4-3.4 3.1-3.4 1.8 0 3.1 1.5 3.1 3.4z"/>
				<path id="&lt;Path&gt;" class="s1" d="m194.2 84.6c0 2.5-1.8 4.5-4.1 4.5-2.2 0-4-2-4-4.5 0-2.4 1.8-4.4 4-4.4 2.3 0 4.1 2 4.1 4.4z"/>
				<path id="&lt;Path&gt;" class="s1" d="m200.8 107.4c0 1.7-1.3 3.2-2.9 3.2-1.6 0-2.9-1.5-2.9-3.2 0-1.8 1.3-3.3 2.9-3.3 1.6 0 2.9 1.5 2.9 3.3z"/>
				<path id="&lt;Path&gt;" class="s1" d="m159.1 85.6c0 1.8-1.3 3.3-2.9 3.3-1.6 0-2.9-1.5-2.9-3.3 0-1.8 1.3-3.2 2.9-3.2 1.6 0 2.9 1.4 2.9 3.2z"/>
				<path id="&lt;Path&gt;" class="s1" d="m420.1 78.6c0 1.8-1.3 3.3-3 3.3-1.6 0-2.9-1.5-2.9-3.3 0-1.8 1.3-3.2 2.9-3.2 1.7 0 3 1.4 3 3.2z"/>
				<path id="&lt;Path&gt;" class="s1" d="m457 134.6c0 1.8-1.3 3.3-2.9 3.3-1.6 0-3-1.5-3-3.3 0-1.8 1.4-3.2 3-3.2 1.6 0 2.9 1.4 2.9 3.2z"/>
				<path id="&lt;Path&gt;" class="s1" d="m64 283.6c0 1.8-1.3 3.3-2.9 3.3-1.6 0-3-1.5-3-3.3 0-1.8 1.4-3.2 3-3.2 1.6 0 2.9 1.4 2.9 3.2z"/>
				<path id="&lt;Path&gt;" class="s1" d="m429.4 325.6c0 1.8-1.3 3.3-2.9 3.3-1.6 0-3-1.5-3-3.3 0-1.8 1.4-3.2 3-3.2 1.6 0 2.9 1.4 2.9 3.2z"/>
				<path id="&lt;Path&gt;" class="s1" d="m461 286.6c0 1.8-1.3 3.3-2.9 3.3-1.6 0-3-1.5-3-3.3 0-1.8 1.4-3.2 3-3.2 1.6 0 2.9 1.4 2.9 3.2z"/>
				<path id="&lt;Path&gt;" class="s1" d="m91.5 387.9c0 1.8-1.4 3.4-3.1 3.4-1.7 0-3.1-1.6-3.1-3.4 0-1.9 1.4-3.4 3.1-3.4 1.7 0 3.1 1.5 3.1 3.4z"/>
			</g>
			<path id="&lt;Path&gt;" class="s20" d="m237.2 194.8c-1-1-1.9-2.1-2.5-3.5-0.3-0.6-0.5-1.4-0.1-2.1 0.3-0.7 1.1-1 1.9-1 0.7 0.1 1.4 0.6 1.9 1.1 0.5 0.6 0.9 1.3 1.3 1.9 0.3-0.8 0.7-1.7 1.5-2.3 0.7-0.6 1.9-0.7 2.5 0 0.7 0.7 0.5 1.8 0.2 2.6-0.6 1.8-1.6 3.4-2.6 4.9-0.2 0.2-0.5 0.8-0.8 0.9-0.3 0.1-0.8-0.4-1-0.6q-1.2-0.9-2.3-1.9z"/>
			<path id="&lt;Path&gt;" class="s20" d="m228.2 176.1c-1.7-0.5-3.4-1.4-4.7-2.6-0.7-0.6-1.3-1.3-1.3-2.2 0-1 0.7-1.8 1.6-2.1 0.9-0.4 1.9-0.2 2.8 0.1 0.8 0.4 1.6 0.9 2.4 1.5-0.1-1.2-0.1-2.4 0.4-3.4 0.5-1 1.8-1.8 2.8-1.4 1.1 0.4 1.5 1.7 1.7 2.9 0.2 2.2 0 4.5-0.4 6.8 0 0.3 0 1.2-0.3 1.4-0.4 0.2-1.2-0.1-1.6-0.1-1.1-0.3-2.3-0.5-3.4-0.9z"/>
			<path id="&lt;Path&gt;" class="s20" d="m213.2 127.5c-2.3-2.2-4.3-4.7-5.5-7.6-0.6-1.4-1-3.1-0.3-4.5 0.7-1.5 2.4-2.3 4.1-2.1 1.6 0.1 3.1 1.1 4.2 2.3 1.1 1.2 1.9 2.6 2.7 4.1 0.7-1.9 1.6-3.8 3.2-5 1.6-1.2 4.1-1.5 5.4-0.1 1.4 1.5 1.1 3.8 0.5 5.7-1.3 3.8-3.4 7.2-5.6 10.4-0.3 0.5-0.9 1.9-1.6 2-0.7 0.1-1.8-1-2.3-1.4-1.7-1.2-3.3-2.4-4.8-3.8z"/>
			<path id="&lt;Path&gt;" class="s20" d="m146.7 121.5c-2.3-2.2-4.3-4.7-5.5-7.6-0.6-1.4-1-3.1-0.3-4.5 0.7-1.5 2.4-2.3 4.1-2.1 1.6 0.1 3.1 1.1 4.2 2.3 1.1 1.2 1.9 2.6 2.7 4.1 0.7-1.9 1.6-3.8 3.2-5 1.6-1.2 4.1-1.5 5.4-0.1 1.4 1.5 1.1 3.8 0.5 5.7-1.3 3.8-3.4 7.2-5.6 10.4-0.3 0.5-0.9 1.9-1.6 2-0.7 0.1-1.8-1-2.3-1.4-1.7-1.2-3.3-2.4-4.8-3.8z"/>
			<path id="&lt;Path&gt;" class="s20" d="m235.9 72.3c-1.4-1.4-2.7-2.9-3.4-4.7-0.4-0.9-0.7-2-0.2-2.8 0.4-1 1.5-1.5 2.5-1.4 1 0.1 2 0.7 2.7 1.5 0.7 0.7 1.2 1.6 1.6 2.5 0.5-1.1 1.1-2.3 2-3.1 1-0.8 2.6-0.9 3.5 0 0.8 0.9 0.6 2.3 0.2 3.5-0.8 2.4-2.1 4.5-3.5 6.5-0.2 0.4-0.5 1.2-1 1.3-0.4 0.1-1.1-0.6-1.4-0.9-1.1-0.7-2.1-1.5-3-2.4z"/>
			<path id="&lt;Path&gt;" class="s20" d="m52.4 253.9c-2.1-0.3-4-0.9-5.6-2-0.8-0.6-1.6-1.3-1.6-2.4 0-1.1 0.8-2.3 1.8-2.9 1.1-0.6 2.3-0.7 3.3-0.5 1.1 0.2 2 0.7 2.9 1.2-0.1-1.4-0.2-2.8 0.4-4.2 0.6-1.3 2.1-2.5 3.3-2.3 1.3 0.3 1.8 1.7 2 3.1 0.4 2.6 0.1 5.5-0.2 8.2-0.1 0.5-0.1 1.5-0.4 1.8-0.4 0.4-1.4 0.2-1.9 0.2-1.3 0-2.7 0-4-0.2z"/>
			<path id="&lt;Path&gt;" class="s20" d="m431 245.6c-0.6-2.8-0.7-5.7-0.1-8.4 0.3-1.4 0.8-2.8 2-3.5 1.3-0.7 3-0.4 4.1 0.6 1.2 0.9 1.8 2.4 2 3.8 0.2 1.5 0 3-0.2 4.4 1.5-1 3.2-1.9 4.9-2 1.8-0.1 3.8 1 4.1 2.8 0.3 1.7-1.2 3.3-2.6 4.3-2.9 2.2-6.2 3.6-9.5 4.9-0.5 0.2-1.6 0.8-2.2 0.6-0.6-0.3-0.8-1.6-1-2.2-0.6-1.8-1.1-3.5-1.5-5.3z"/>
			<path id="&lt;Path&gt;" class="s20" d="m390.9 284.2c-1.9-0.8-3.6-1.9-5-3.5-0.7-0.7-1.3-1.7-1.2-2.7 0.1-1.1 1.1-1.9 2.1-2.2 1.1-0.3 2.2 0 3.1 0.5 1 0.5 1.8 1.3 2.6 2 0-1.3 0.2-2.7 0.9-3.8 0.7-1.1 2.2-1.8 3.4-1.2 1.1 0.6 1.4 2.2 1.4 3.5 0.1 2.6-0.5 5.1-1.2 7.6-0.1 0.4-0.2 1.4-0.6 1.6-0.4 0.2-1.3-0.2-1.7-0.4-1.3-0.4-2.6-0.8-3.8-1.4z"/>
			<g id="&lt;Group&gt;">
				<g id="&lt;Group&gt;">
					<g id="&lt;Group&gt;">
						<path id="&lt;Path&gt;" class="s20" d="m370.6 227.3c4.2-3.8 8.3-7.6 13-10.7 1.1-0.8-1.8-0.4-2.2 0-4.9 3.2-9.1 7.1-13.4 10.9-0.5 0.5 2.1 0.2 2.6-0.2z"/>
					</g>
				</g>
				<g id="&lt;Group&gt;">
					<g id="&lt;Group&gt;">
						<path id="&lt;Path&gt;" class="s20" d="m373 235.7q12.1-1.4 23.8-4.4c1.8-0.4 1.3-2.4-0.5-1.9q-11.4 2.8-23 4.1c-1.6 0.2-2.3 2.4-0.3 2.2z"/>
					</g>
				</g>
				<g id="&lt;Group&gt;">
					<g id="&lt;Group&gt;">
						<path id="&lt;Path&gt;" class="s20" d="m372.3 246.8c3.8 1.5 7.4 3.5 11.1 5.2 1 0.5 3.6-0.9 2.3-1.5-3.9-1.9-7.7-3.9-11.7-5.5-1.1-0.4-3.4 1.1-1.7 1.8z"/>
					</g>
				</g>
			</g>
			<g id="&lt;Group&gt;">
				<g id="&lt;Group&gt;">
					<g id="&lt;Group&gt;">
						<path id="&lt;Path&gt;" class="s20" d="m90.2 191.5c-5.4-1.9-10.8-3.6-15.8-6.3-0.7-0.3-3 0.9-2.8 1 5.1 2.6 10.5 4.4 15.9 6.3 0.8 0.2 2.9-0.9 2.7-1z"/>
					</g>
				</g>
				<g id="&lt;Group&gt;">
					<g id="&lt;Group&gt;">
						<path id="&lt;Path&gt;" class="s20" d="m94.6 184.5q-6.9-9.7-15-18.5c-0.9-0.9-3.7 0.3-2.7 1.3q8.1 8.8 15.1 18.5c0.7 1.1 3.5-0.1 2.6-1.3z"/>
					</g>
				</g>
				<g id="&lt;Group&gt;">
					<g id="&lt;Group&gt;">
						<path id="&lt;Path&gt;" class="s20" d="m104.6 179.3c-0.5-4.2-0.5-8.4-0.8-12.5-0.1-1.2-3-0.5-2.9 0.7 0.3 4.2 0.3 8.4 0.8 12.6 0.2 1.1 3.1 0.4 2.9-0.8z"/>
					</g>
				</g>
			</g>
		</g>
	</g>
</svg>